PathFileType	4	(X/Y/Z)	C:\Users\Biomechanik\SynologyDrive\AlexP\Athlete_03\Athlete_3_25_03_31\Walking_05\marker_experimental.trc
DataRate	CameraRate	NumFrames	NumMarkers	Units	OrigDataRate	OrigDataStartFrame	OrigNumFrames
200.000000	200.000000	4	53	mm	200.000000	213	342
Frame#	Time	GLAB			RFHD			LFHD			C7			T6			SPINMOL			SPINM2			SPINM3			T12			BELTOL			BELT2			BELT3			SACROL			SACR2			SACR3			LTHOL			LTH2			LTH3			LSHAOL			LSHA2			LSHA3			LHEE			LTOE			LM5			RTHOL			RTH2			RTH3			RSHAOL			RSHA2			RSHA3			RHEE			RTOE			RM5			STRN			XIPH			LACR			LUAOL			LUA2			LUA3			LLAOL			LLA2			LLA3			LWRR			LWRU			RACR			RUAOL			RUA2			RUA3			RLAOL			RLA2			RLA3			RWRR			RWRU			
		X1	Y1	Z1	X2	Y2	Z2	X3	Y3	Z3	X4	Y4	Z4	X5	Y5	Z5	X6	Y6	Z6	X7	Y7	Z7	X8	Y8	Z8	X9	Y9	Z9	X10	Y10	Z10	X11	Y11	Z11	X12	Y12	Z12	X13	Y13	Z13	X14	Y14	Z14	X15	Y15	Z15	X16	Y16	Z16	X17	Y17	Z17	X18	Y18	Z18	X19	Y19	Z19	X20	Y20	Z20	X21	Y21	Z21	X22	Y22	Z22	X23	Y23	Z23	X24	Y24	Z24	X25	Y25	Z25	X26	Y26	Z26	X27	Y27	Z27	X28	Y28	Z28	X29	Y29	Z29	X30	Y30	Z30	X31	Y31	Z31	X32	Y32	Z32	X33	Y33	Z33	X34	Y34	Z34	X35	Y35	Z35	X36	Y36	Z36	X37	Y37	Z37	X38	Y38	Z38	X39	Y39	Z39	X40	Y40	Z40	X41	Y41	Z41	X42	Y42	Z42	X43	Y43	Z43	X44	Y44	Z44	X45	Y45	Z45	X46	Y46	Z46	X47	Y47	Z47	X48	Y48	Z48	X49	Y49	Z49	X50	Y50	Z50	X51	Y51	Z51	X52	Y52	Z52	X53	Y53	Z53	

214	1.065	755.1141357421874	1568.892944335938	238.7958068847658	704.3180541992186	1596.972778320312	302.2476806640626	716.9750976562499	1596.802734375	164.110794067383	522.6202392578124	1419.510498046875	217.6752471923829	463.2806701660155	1250.56640625	216.8625640869141	454.6196289062499	1209.757202148438	196.7785034179688	449.9870605468749	1203.48388671875	246.4795379638673	459.7490234374999	1146.10546875	214.401596069336	484.1311035156249	1081.14892578125	220.2791442871095	445.9043579101561	1048.558715820312	210.2269439697266	449.9898681640624	1045.099487304688	260.3837890625001	440.9185180664061	985.9939575195312	230.6171417236329	455.1573791503905	944.478759765625	215.7422485351563	465.079376220703	937.9047241210938	265.5886230468751	438.9471435546874	883.6881713867188	237.6082916259766	481.8275756835937	675.1561279296875	46.51524734497079	422.3915405273437	635.1580810546875	81.07562255859382	466.3574523925781	618.5233154296875	64.42552947998055	383.9454040527344	328.3931884765625	78.1381912231446	322.4398193359375	279.4329833984375	91.37046813964849	371.6685485839844	268.5271606445312	89.28858947753913	259.4286193847656	93.01454925537111	188.8999633789063	471.5769958496093	42.68871688842776	182.4106597900391	424.1497802734375	32.35777282714847	82.69637298583991	637.0684814453124	648.9008178710938	404.6666564941407	710.5665283203124	621.2552490234375	418.1813964843751	672.7606811523436	599.0679321289062	395.0572204589845	766.1279296874999	328.7682495117188	397.5527954101564	825.1259765624999	276.7866210937501	401.6840209960939	778.7366943359374	269.9172363281251	384.6999511718752	846.8583984375	52.82416152954107	287.1536865234377	1043.2041015625	129.1848907470704	310.3444213867189	1002.183898925781	86.75762176513678	405.3082885742189	690.4189453124999	1314.765869140625	223.6218414306642	704.0802001953124	1170.958862304688	219.9763488769533	601.8328857421874	1383.622802734375	48.19259262084972	621.9345092773436	1240.436767578125	-59.86734008789051	624.2295532226561	1178.378173828125	-81.10659790039051	668.8687744140624	1194.312622070312	-60.51781845092761	756.1780395507811	1016.097412109375	-109.4997940063475	768.4133911132811	939.780029296875	-92.2511825561522	801.9469604492186	976.5494995117188	-99.82227325439439	885.802734375	917.332275390625	-84.20226287841781	901.8090820312499	951.4671020507812	-13.53183078765853	595.4486694335935	1374.129272460938	389.9520568847657	549.2100830078123	1232.91015625	488.3220825195314	563.9060058593748	1169.52978515625	503.414276123047	513.4405517578123	1180.137084960938	505.9215698242189	518.6756591796873	962.567138671875	556.8709716796876	564.2580566406249	911.0601196289062	597.6427001953126	528.6485595703124	899.8175048828125	566.1057128906251	556.9754028320311	819.176025390625	593.0648803710939	609.8978881835936	799.0977172851562	534.3805541992189	
215	1.07	761.8693847656249	1567.740356445312	240.0584564208986	711.0150756835936	1595.656982421875	303.5349426269532	723.7358398437499	1595.745483398438	165.4036407470705	529.4819335937499	1418.304809570312	218.623031616211	470.0928344726561	1249.417602539062	217.6550292968751	461.3934936523436	1208.613525390625	197.5383605957032	456.8218994140624	1202.289916992188	247.237518310547	466.5292663574218	1144.943481445312	215.0962219238282	490.9211120605468	1079.926391601562	220.8525390625001	452.7426757812499	1047.37109375	210.8355712890626	456.906768798828	1043.814086914062	260.9825439453126	447.7623596191405	984.7840576171875	231.1199951171876	461.9810180664061	943.616943359375	216.3562164306641	472.0676879882811	936.8193359375	266.1366577148439	445.5490722656249	882.8302001953125	238.0626220703126	486.6351318359374	675.0875854492188	46.712257385254	427.2418212890624	635.4052734375	81.73178863525399	470.9416503906249	618.5198364257812	64.65209197998055	386.583984375	328.9660949707031	78.06541442871101	324.6554565429688	280.5559997558594	91.38504791259771	373.7868347167969	269.1952819824219	89.26892089843757	260.0006408691406	94.65296936035158	188.8784484863282	471.7329101562499	42.59847259521487	182.3937377929688	424.282470703125	32.39480209350589	82.71349334716804	642.7072143554686	647.1078491210938	404.2687988281251	715.9613647460936	619.0343627929688	418.6198730468751	678.3724975585936	597.1934814453125	394.716033935547	775.1456298828124	327.2332153320313	397.6129760742189	835.1656494140624	276.3449096679688	401.7242431640627	788.8272705078124	268.6286010742188	384.9248657226564	860.97314453125	52.13312530517583	287.9140625000002	1055.970092773438	132.7642517089844	309.5786743164064	1016.591186523437	89.46889495849615	404.9576110839845	697.3512573242186	1313.467651367188	224.4158782958986	710.7083129882811	1169.658447265625	220.4661254882814	608.8352050781249	1382.62890625	49.1226158142091	629.0635375976561	1239.651977539062	-59.02066421508778	631.3977050781249	1177.665649414062	-80.44361877441395	676.0324096679686	1193.557250976562	-59.77292633056629	763.8195190429686	1015.804016113281	-108.8827972412108	776.4900512695311	939.547119140625	-91.62682342529283	809.8186035156249	976.5127563476562	-99.15130615234361	894.0092163085938	917.8150024414062	-83.40663146972639	909.6820068359374	952.0084838867188	-12.69143772125227	602.2804565429685	1372.72900390625	390.8390502929689	555.8294677734373	1231.366943359375	488.9062805175782	570.4195556640623	1167.963623046875	503.9756469726564	519.9594726562498	1178.611083984375	506.329559326172	524.6264038085935	961.0623779296875	557.0910034179689	569.9313964843749	909.3890991210938	598.0333251953126	534.4058227539061	898.2703247070312	566.3195800781251	562.3620605468749	817.5519409179688	593.3901367187501	615.4790649414061	797.2932739257812	534.9454345703126	
216	1.075	768.6411132812499	1566.632568359375	241.3458099365236	717.7283325195311	1594.386840820312	304.8453063964845	730.5118408203124	1594.729370117188	166.7203369140626	536.3742675781249	1417.131958007812	219.6057739257813	476.9439086914061	1248.298217773438	218.4700927734376	468.2095947265624	1207.502685546875	198.3165588378907	463.6981201171874	1201.124389648438	248.0142364501954	473.3530883789061	1143.812377929688	215.8026275634766	497.753448486328	1078.735595703125	221.4262237548829	459.611358642578	1046.217895507812	211.4629821777345	463.8553771972655	1042.565795898438	261.6001281738282	454.6425170898436	983.6094360351562	231.6427459716798	468.8486022949218	942.7603149414062	216.9752349853516	479.0943603515624	935.7539672851562	266.6944885253907	452.2198181152343	881.9755249023438	238.5324249267579	491.5677490234374	675.0357055664062	46.9225845336915	432.2314147949218	635.6470336914062	82.39587402343759	475.6647949218749	618.52587890625	64.8838653564454	389.3601684570312	329.5899963378906	77.97534179687507	326.9961853027344	281.7533874511719	91.37405395507818	376.0226440429688	269.9210815429688	89.2345275878907	260.6298217773437	96.42599487304689	188.825180053711	471.9082946777343	42.50256729125979	182.3737182617188	424.4332275390625	32.43974304199222	82.72444915771491	648.5681152343749	645.43896484375	404.0034790039064	721.6137084960936	616.9931030273438	419.0659179687501	684.2039184570311	595.44921875	394.494842529297	783.9602050781249	325.7588195800782	397.6765441894533	844.8994140624999	275.8736267089844	401.7207946777345	798.6065063476561	267.3912048339844	385.1219787597658	874.3565673828125	51.51097106933599	288.5741271972658	1068.06787109375	136.000961303711	308.7202758789064	1030.283935546875	91.89572143554693	404.496551513672	704.3135986328124	1312.222534179688	225.2407836914064	717.4028930664061	1168.410400390625	220.9905548095705	615.8608398437499	1381.678833007812	50.08825302124035	636.2214355468749	1238.912353515625	-58.1297035217284	638.5789184570311	1176.992919921875	-79.74428558349598	683.2052612304686	1192.82666015625	-58.97906494140612	771.3812866210936	1015.490905761719	-108.2384185791014	784.4434814453124	939.2880249023438	-90.98451995849595	817.5864868164061	976.4299926757812	-98.46484374999984	902.0768432617188	918.2014770507812	-82.61605072021467	917.4491577148436	952.4364624023438	-11.85652351379378	609.141662597656	1371.366455078125	391.7570800781251	562.5021972656248	1229.850219726562	489.5182495117189	576.9932861328123	1166.423706054688	504.5536499023439	526.538879394531	1177.107177734375	506.7665405273439	530.6500244140623	959.5763549804688	557.3045043945314	575.6774902343749	907.7338256835938	598.4108886718751	540.2346191406249	896.7416381835938	566.5220336914064	567.8185424804686	815.9447021484375	593.6945190429689	621.1334228515624	795.5089721679688	535.4861450195314	
217	1.08	775.4296264648436	1565.574096679688	242.6560668945314	724.4581298828124	1593.166870117188	306.1770935058595	737.3024291992186	1593.758056640625	168.0592193603517	543.2975463867186	1415.99462890625	220.6236267089845	483.8346252441405	1247.210815429688	219.3068084716798	475.0689392089843	1206.42724609375	199.1122283935548	470.6160278320311	1199.98974609375	248.8085021972657	480.2210083007811	1142.71484375	216.520477294922	504.6292114257811	1077.57958984375	222.0010681152345	466.5105590820311	1045.098510742188	212.1115264892579	470.8360900878905	1041.35498046875	262.2391357421876	461.5607910156249	982.4696044921875	232.1888122558595	475.7619323730468	941.9070434570312	217.5978393554688	486.1604614257811	934.7075805664062	267.260711669922	458.9618225097655	881.1222534179688	239.0166778564454	496.6371154785156	674.9960327148438	47.14336776733408	437.3682250976562	635.8793334960938	83.05997467041024	480.5375061035156	618.5372314453125	65.11885833740243	392.28125	330.2636108398438	77.86717224121101	329.4688110351562	283.025146484375	91.33446502685553	378.3822937011719	270.7044372558594	89.18376159667976	261.3213195800781	98.3369827270508	188.7376861572266	472.1009521484374	42.39937973022464	182.3512115478516	424.603759765625	32.49243545532229	82.72795104980476	654.6778564453124	643.9036865234375	403.8711853027345	727.5566406249999	615.1466674804688	419.4986572265626	690.2812499999999	593.844970703125	394.3890991210939	792.5583496093749	324.3439941406251	397.7321777343752	854.3056030273436	275.3567199707032	401.6764221191408	808.0527343749999	266.1981811523438	385.2799072265627	886.9639282226562	50.92746734619146	289.1296386718752	1079.480102539062	138.8294067382813	307.7854614257814	1043.22216796875	93.98111724853521	403.9366760253908	711.3063964843749	1311.033569335938	226.0966644287111	724.1661987304686	1167.217895507812	221.5501708984376	622.9086914062499	1380.776733398438	51.08899307250988	643.4058837890624	1238.221801757812	-57.1968307495116	645.7711181640624	1176.36376953125	-79.00975036621082	690.3853759765624	1192.125122070312	-58.13752746582018	778.8617553710936	1015.161071777344	-107.5679626464842	792.2719116210936	939.0049438476562	-90.32596588134751	825.2492675781249	976.3037719726562	-97.76380920410141	910.0051879882812	918.4937133789062	-81.83259582519514	925.1098022460936	952.7534790039062	-11.02858829498274	616.0355834960935	1370.042846679688	392.7059020996095	569.2297363281248	1228.363037109375	490.1582336425782	583.6282958984373	1164.912719726562	505.1487121582032	533.180236816406	1175.62841796875	507.2338867187501	536.7478027343748	958.1118774414062	557.5130004882814	581.4967651367186	906.097900390625	598.7766113281251	546.1365356445311	895.2348022460938	566.7144775390626	573.3475952148436	814.3576049804688	593.9791259765626	626.8628540039061	793.7484741210938	536.0017700195314	
